<svg fill="none" stroke-linecap="square" stroke-miterlimit="10" width="1156" height="371"
    xmlns="http://www.w3.org/2000/svg">
    <path fill="none" d="M0 0h1156v371H0V0z" />
    <path stroke="#9397b1" stroke-linecap="butt"
        d="M82.5 18.5v311M258.5 18.5v311M434.5 18.5v311M610.5 18.5v311M785.5 18.5v311M961.5 18.5v311M1137.5 18.5v311" />
    <!-- <path stroke="#c9cbd8" stroke-linecap="butt"
        d="M170.5 18.5v311M346.5 18.5v311M522.5 18.5v311M697.5 18.5v311M873.5 18.5v311M1049.5 18.5v311" /> -->
    <clipPath id="a">
        <path d="M82.55 18.55h1054.9v310.9H82.55V18.55z" />
    </clipPath>
    <path clip-path="url(#a)" d="M83 90V44h1031a2 2 0 0 1 2 2v42a2 2 0 0 1-2 2z" />
    <path fill="#ff6e42" clip-path="url(#a)" d="M83 90V44h1031a2 2 0 0 1 2 2v42a2 2 0 0 1-2 2z" />
    <path clip-path="url(#a)" d="M83 161v-46h62a2 2 0 0 1 2 2v42a2 2 0 0 1-2 2z" />
    <path fill="#ff6e42" clip-path="url(#a)" d="M83 161v-46h62a2 2 0 0 1 2 2v42a2 2 0 0 1-2 2z" />
    <path clip-path="url(#a)" d="M83 233v-46h8a2 2 0 0 1 2 2v42a2 2 0 0 1-2 2z" />
    <path fill="#ff6e42" clip-path="url(#a)" d="M83 233v-46h8a2 2 0 0 1 2 2v42a2 2 0 0 1-2 2z" />
    <path clip-path="url(#a)" d="M83 304v-46h.5a.5.5 0 0 1 .5.5v45a.5.5 0 0 1-.5.5z" />
    <path fill="#ff6e42" clip-path="url(#a)" d="M83 304v-46h.5a.5.5 0 0 1 .5.5v45a.5.5 0 0 1-.5.5z" />
    <path stroke="#ff6e42" stroke-width="3" stroke-linejoin="round" stroke-linecap="round"
        d="m1079.982 66.516.516-4.97h5.094v1.173h-4.032l-.296 2.703q.734-.422 1.656-.422 1.36 0 2.156.906.813.89.813 2.422 0 1.531-.844 2.422-.828.89-2.313.89-1.312 0-2.156-.734-.828-.734-.953-2.031h1.203q.11.86.594 1.297.5.437 1.312.437.875 0 1.375-.593.516-.61.516-1.672 0-1-.547-1.594-.547-.61-1.453-.61-.813 0-1.297.36l-.328.266-1.016-.25zm13.454-2.375q0 .75-.391 1.328-.39.578-1.063.906.782.344 1.235.984.453.641.453 1.454 0 1.296-.875 2.062-.86.766-2.281.766-1.438 0-2.313-.766-.86-.781-.86-2.063 0-.812.438-1.453.438-.656 1.219-.984-.656-.328-1.047-.906-.375-.594-.375-1.328 0-1.25.797-1.985.813-.75 2.14-.75 1.313 0 2.11.75.813.735.813 1.985zm-1.032 4.64q0-.828-.531-1.344-.531-.53-1.39-.53-.844 0-1.36.515-.516.516-.516 1.375 0 .844.5 1.328.5.484 1.407.484.875 0 1.375-.484.515-.5.515-1.344zm-1.89-6.328q-.75 0-1.22.469-.452.453-.452 1.25 0 .75.453 1.219.453.468 1.203.468.766 0 1.219-.468.453-.47.453-1.22 0-.765-.469-1.234-.469-.484-1.187-.484zm11.312-.203-4.125 9.25h-1.312l4.093-8.922h-5.375v-1.031h6.72v.703zm6.422 4.875q-.39.469-.953.766-.547.28-1.203.28-.86 0-1.5-.421-.64-.422-.985-1.188-.343-.78-.343-1.703 0-1 .375-1.796.375-.813 1.078-1.235.703-.422 1.625-.422 1.484 0 2.328 1.11.86 1.109.86 3.015v.36q0 2.906-1.157 4.25-1.14 1.328-3.469 1.359h-.25v-1.063h.282q1.562-.03 2.39-.812.844-.797.922-2.5zm-1.953 0q.64 0 1.172-.39.547-.391.797-.97v-.5q0-1.25-.547-2.015-.547-.781-1.36-.781-.843 0-1.359.64-.5.625-.5 1.672 0 1.031.484 1.688.5.656 1.313.656z" />
    <path fill="#fff"
        d="m1079.982 66.516.516-4.97h5.094v1.173h-4.032l-.296 2.703q.734-.422 1.656-.422 1.36 0 2.156.906.813.89.813 2.422 0 1.531-.844 2.422-.828.89-2.313.89-1.312 0-2.156-.734-.828-.734-.953-2.031h1.203q.11.86.594 1.297.5.437 1.312.437.875 0 1.375-.593.516-.61.516-1.672 0-1-.547-1.594-.547-.61-1.453-.61-.813 0-1.297.36l-.328.266-1.016-.25zm13.454-2.375q0 .75-.391 1.328-.39.578-1.063.906.782.344 1.235.984.453.641.453 1.454 0 1.296-.875 2.062-.86.766-2.281.766-1.438 0-2.313-.766-.86-.781-.86-2.063 0-.812.438-1.453.438-.656 1.219-.984-.656-.328-1.047-.906-.375-.594-.375-1.328 0-1.25.797-1.985.813-.75 2.14-.75 1.313 0 2.11.75.813.735.813 1.985zm-1.032 4.64q0-.828-.531-1.344-.531-.53-1.39-.53-.844 0-1.36.515-.516.516-.516 1.375 0 .844.5 1.328.5.484 1.407.484.875 0 1.375-.484.515-.5.515-1.344zm-1.89-6.328q-.75 0-1.22.469-.452.453-.452 1.25 0 .75.453 1.219.453.468 1.203.468.766 0 1.219-.468.453-.47.453-1.22 0-.765-.469-1.234-.469-.484-1.187-.484zm11.312-.203-4.125 9.25h-1.312l4.093-8.922h-5.375v-1.031h6.72v.703zm6.422 4.875q-.39.469-.953.766-.547.28-1.203.28-.86 0-1.5-.421-.64-.422-.985-1.188-.343-.78-.343-1.703 0-1 .375-1.796.375-.813 1.078-1.235.703-.422 1.625-.422 1.484 0 2.328 1.11.86 1.109.86 3.015v.36q0 2.906-1.157 4.25-1.14 1.328-3.469 1.359h-.25v-1.063h.282q1.562-.03 2.39-.812.844-.797.922-2.5zm-1.953 0q.64 0 1.172-.39.547-.391.797-.97v-.5q0-1.25-.547-2.015-.547-.781-1.36-.781-.843 0-1.359.64-.5.625-.5 1.672 0 1.031.484 1.688.5.656 1.313.656z" />
    <path stroke="#ff6e42" stroke-width="3" stroke-linejoin="round" stroke-linecap="round"
        d="M120.498 136.906h.938q.906-.015 1.406-.469.516-.453.516-1.234 0-1.75-1.735-1.75-.828 0-1.312.469-.485.469-.485 1.234h-1.265q0-1.187.86-1.969.874-.78 2.202-.78 1.406 0 2.203.75.797.75.797 2.062 0 .656-.422 1.265-.406.61-1.14.907.828.265 1.265.875.453.593.453 1.453 0 1.344-.875 2.14-.875.782-2.28.782-1.391 0-2.282-.75-.875-.766-.875-2.016h1.281q0 .781.5 1.266.516.468 1.375.468.922 0 1.406-.484.485-.484.485-1.375 0-.86-.531-1.328-.532-.469-1.547-.484h-.938v-1.032zm11.125-4.36v1.063h-.234q-1.485.032-2.36.875-.875.844-1.015 2.391.797-.906 2.156-.906 1.297 0 2.063.922.78.906.78 2.359 0 1.547-.843 2.469-.828.922-2.234.922-1.422 0-2.313-1.094-.89-1.11-.89-2.828v-.485q0-2.75 1.171-4.203 1.172-1.453 3.485-1.484h.234zm-1.672 4.485q-.64 0-1.187.39-.547.376-.766.97v.468q0 1.235.547 1.985.563.75 1.39.75.86 0 1.344-.625.485-.64.485-1.656 0-1.032-.5-1.657-.485-.625-1.313-.625zm9.547 1.094q-.39.469-.953.766-.547.28-1.203.28-.86 0-1.5-.421-.64-.422-.984-1.188-.344-.78-.344-1.703 0-1 .375-1.797.375-.812 1.078-1.234.703-.422 1.625-.422 1.484 0 2.328 1.11.86 1.109.86 3.015v.36q0 2.906-1.157 4.25-1.14 1.328-3.469 1.359h-.25v-1.063h.282q1.562-.03 2.39-.812.844-.797.922-2.5zm-1.953 0q.64 0 1.172-.39.547-.391.797-.97v-.5q0-1.25-.547-2.015-.547-.781-1.36-.781-.843 0-1.359.64-.5.625-.5 1.672 0 1.031.485 1.688.5.656 1.312.656z" />
    <path fill="#fff"
        d="M120.498 136.906h.938q.906-.015 1.406-.469.516-.453.516-1.234 0-1.75-1.735-1.75-.828 0-1.312.469-.485.469-.485 1.234h-1.265q0-1.187.86-1.969.874-.78 2.202-.78 1.406 0 2.203.75.797.75.797 2.062 0 .656-.422 1.265-.406.61-1.14.907.828.265 1.265.875.453.593.453 1.453 0 1.344-.875 2.14-.875.782-2.28.782-1.391 0-2.282-.75-.875-.766-.875-2.016h1.281q0 .781.5 1.266.516.468 1.375.468.922 0 1.406-.484.485-.484.485-1.375 0-.86-.531-1.328-.532-.469-1.547-.484h-.938v-1.032zm11.125-4.36v1.063h-.234q-1.485.032-2.36.875-.875.844-1.015 2.391.797-.906 2.156-.906 1.297 0 2.063.922.78.906.78 2.359 0 1.547-.843 2.469-.828.922-2.234.922-1.422 0-2.313-1.094-.89-1.11-.89-2.828v-.485q0-2.75 1.171-4.203 1.172-1.453 3.485-1.484h.234zm-1.672 4.485q-.64 0-1.187.39-.547.376-.766.97v.468q0 1.235.547 1.985.563.75 1.39.75.86 0 1.344-.625.485-.64.485-1.656 0-1.032-.5-1.657-.485-.625-1.313-.625zm9.547 1.094q-.39.469-.953.766-.547.28-1.203.28-.86 0-1.5-.421-.64-.422-.984-1.188-.344-.78-.344-1.703 0-1 .375-1.797.375-.812 1.078-1.234.703-.422 1.625-.422 1.484 0 2.328 1.11.86 1.109.86 3.015v.36q0 2.906-1.157 4.25-1.14 1.328-3.469 1.359h-.25v-1.063h.282q1.562-.03 2.39-.812.844-.797.922-2.5zm-1.953 0q.64 0 1.172-.39.547-.391.797-.97v-.5q0-1.25-.547-2.015-.547-.781-1.36-.781-.843 0-1.359.64-.5.625-.5 1.672 0 1.031.485 1.688.5.656 1.312.656zM108.33 209.516l.515-4.97h5.094v1.173h-4.031l-.297 2.703q.734-.422 1.656-.422 1.36 0 2.156.906.813.89.813 2.422 0 1.531-.844 2.422-.828.89-2.313.89-1.312 0-2.156-.734-.828-.734-.953-2.031h1.203q.11.86.594 1.297.5.437 1.312.437.875 0 1.375-.593.516-.61.516-1.672 0-1-.547-1.594-.547-.61-1.453-.61-.812 0-1.297.36l-.328.266-1.016-.25zm12.265.609q-.39.469-.953.766-.547.28-1.203.28-.86 0-1.5-.421-.64-.422-.985-1.188-.343-.78-.343-1.703 0-1 .375-1.797.375-.812 1.078-1.234.703-.422 1.625-.422 1.484 0 2.328 1.11.86 1.109.86 3.015v.36q0 2.906-1.157 4.25-1.14 1.328-3.469 1.359h-.25v-1.063h.282q1.562-.03 2.39-.812.844-.797.922-2.5zm-1.953 0q.64 0 1.172-.39.547-.391.797-.97v-.5q0-1.25-.547-2.015-.547-.781-1.36-.781-.843 0-1.359.64-.5.625-.5 1.672 0 1.031.484 1.688.5.656 1.313.656zM104.816 278.14q0 .75-.39 1.329-.391.578-1.063.906.781.344 1.234.984.453.641.453 1.454 0 1.296-.875 2.062-.86.766-2.281.766-1.437 0-2.312-.766-.86-.781-.86-2.063 0-.812.438-1.453.437-.656 1.218-.984-.656-.328-1.046-.906-.375-.594-.375-1.328 0-1.25.796-1.985.813-.75 2.141-.75 1.313 0 2.11.75.812.735.812 1.985zm-1.031 4.641q0-.828-.532-1.344-.53-.53-1.39-.53-.844 0-1.36.515-.515.515-.515 1.375 0 .844.5 1.328.5.484 1.406.484.875 0 1.375-.484.516-.5.516-1.344zm-1.891-6.328q-.75 0-1.219.469-.453.453-.453 1.25 0 .75.453 1.219.453.468 1.203.468.766 0 1.22-.468.452-.47.452-1.22 0-.765-.468-1.233-.47-.485-1.188-.485z" />
    <path fill="#9397b1"
        d="M39.644 71.793V61.777h4.453q1.344 0 2.031.266.703.266 1.11.953.421.688.421 1.516 0 1.062-.687 1.797-.688.718-2.125.922.515.25.797.5.578.53 1.093 1.328l1.75 2.734h-1.671l-1.329-2.078q-.578-.906-.953-1.375-.375-.484-.672-.672-.296-.203-.609-.281-.219-.047-.734-.047h-1.547v4.453h-1.328zm1.328-5.594h2.86q.905 0 1.421-.187.516-.188.781-.594.266-.422.266-.906 0-.719-.516-1.172-.515-.469-1.64-.469h-3.172V66.2zm13.469 3.25 1.28.157q-.312 1.125-1.124 1.75-.813.609-2.078.609-1.594 0-2.532-.984-.921-.985-.921-2.75 0-1.844.937-2.844.953-1.016 2.453-1.016 1.453 0 2.375 1 .922.985.922 2.781v.329h-5.422q.078 1.187.672 1.828.61.64 1.531.64.672 0 1.141-.359.484-.36.766-1.14zm-4.032-1.984h4.047q-.078-.922-.469-1.375-.578-.703-1.515-.703-.86 0-1.438.562-.562.563-.625 1.516zm7.063 7.11V64.526h1.125v.954q.39-.563.89-.829.5-.28 1.22-.28.921 0 1.624.484.719.468 1.078 1.343.36.875.36 1.907 0 1.109-.407 2.015-.39.89-1.156 1.375-.75.469-1.594.469-.609 0-1.109-.266-.484-.265-.797-.656v3.531h-1.234zm1.11-6.376q0 1.407.562 2.078.578.672 1.39.672.813 0 1.391-.687.594-.703.594-2.156 0-1.391-.578-2.079-.563-.687-1.36-.687-.781 0-1.39.734-.61.735-.61 2.125zm6.905-5.015v-1.407h1.22v1.407h-1.22zm0 8.61v-7.267h1.22v7.266h-1.22zm7.704 0v-.923q-.704 1.094-2.032 1.094-.875 0-1.609-.484-.719-.485-1.125-1.344-.39-.86-.39-1.969 0-1.078.359-1.969.36-.89 1.078-1.359.734-.469 1.625-.469.656 0 1.172.281.515.266.828.72v-3.595h1.234v10.016h-1.14zM69.3 68.167q0 1.39.578 2.094.594.687 1.39.687.813 0 1.376-.656.562-.672.562-2.016 0-1.5-.578-2.187-.578-.703-1.406-.703t-1.375.672q-.547.672-.547 2.11zM53.534 143.264l3.844-10.015H58.8l4.11 10.015h-1.516l-1.172-3.03h-4.188l-1.093 3.03h-1.407zm2.891-4.109h3.39l-1.046-2.781q-.469-1.266-.703-2.078-.188.968-.547 1.906l-1.094 2.953zm7.031 4.11v-7.266h1.11v1.11q.421-.782.78-1.017.36-.25.798-.25.625 0 1.265.391l-.422 1.14q-.453-.265-.906-.265-.406 0-.734.25-.313.234-.453.672-.203.656-.203 1.438v3.796h-1.235zm9.64 2.78V142.5q-.28.39-.796.672-.516.265-1.094.265-1.297 0-2.234-1.031-.922-1.047-.922-2.844 0-1.094.375-1.953.375-.875 1.094-1.312.718-.453 1.593-.453 1.344 0 2.11 1.125v-.97h1.11v10.048h-1.235zm-3.796-6.437q0 1.406.594 2.11.593.703 1.406.703.797 0 1.36-.672.562-.672.562-2.031 0-1.438-.594-2.172-.594-.735-1.406-.735-.797 0-1.36.688-.562.672-.562 2.11zM19.628 214.736V204.72h3.453q1.172 0 1.782.14.859.188 1.468.72.797.671 1.188 1.718.39 1.031.39 2.375 0 1.14-.265 2.031-.266.875-.688 1.453-.406.579-.906.907-.5.328-1.203.5-.688.172-1.594.172h-3.625zm1.328-1.188h2.14q.985 0 1.548-.172.578-.187.906-.531.469-.469.734-1.266.266-.797.266-1.937 0-1.563-.516-2.406-.515-.844-1.25-1.141-.546-.203-1.718-.203h-2.11v7.656zm8.5 1.188v-7.266h1.11v1.11q.422-.782.78-1.016.36-.25.798-.25.625 0 1.265.39l-.422 1.141q-.453-.266-.906-.266-.406 0-.734.25-.313.235-.453.672-.203.656-.203 1.438v3.797h-1.235zm9.75-.891q-.672.578-1.312.828-.625.234-1.36.234-1.187 0-1.843-.578-.641-.593-.641-1.515 0-.531.234-.969.25-.438.641-.703.406-.266.89-.406.36-.094 1.094-.188 1.5-.172 2.203-.422v-.312q0-.766-.343-1.063-.469-.422-1.407-.422-.859 0-1.28.313-.407.297-.61 1.062l-1.203-.156q.156-.781.531-1.25.39-.469 1.094-.719.718-.265 1.656-.265.922 0 1.5.219.578.218.844.546.281.328.39.844.063.313.063 1.125v1.64q0 1.72.078 2.173.078.453.313.875h-1.282q-.187-.391-.25-.891zm-.094-2.75q-.671.266-2.015.469-.75.11-1.078.25-.313.125-.485.39-.172.266-.172.578 0 .5.375.829.375.328 1.094.328.719 0 1.266-.313.547-.312.812-.86.203-.405.203-1.218v-.453zm3.36 3.64v-7.265h1.11v1.031q.327-.547.89-.86.578-.327 1.297-.327.812 0 1.328.344.515.328.734.921.86-1.265 2.235-1.265 1.078 0 1.656.594.594.593.594 1.843v4.985H51.08v-4.578q0-.735-.125-1.063-.11-.328-.422-.516-.312-.203-.734-.203-.766 0-1.281.516-.5.5-.5 1.625v4.219h-1.235v-4.72q0-.812-.297-1.218-.296-.422-.984-.422-.516 0-.969.281-.437.266-.64.797-.188.516-.188 1.516v3.766h-1.234zm15.734-.89q-.672.578-1.312.828-.625.234-1.36.234-1.187 0-1.843-.578-.641-.593-.641-1.515 0-.531.234-.969.25-.438.641-.703.406-.266.89-.406.36-.094 1.094-.188 1.5-.172 2.203-.422v-.312q0-.766-.343-1.063-.469-.422-1.407-.422-.859 0-1.28.313-.407.297-.61 1.062l-1.203-.156q.156-.781.531-1.25.39-.469 1.094-.719.718-.265 1.656-.265.922 0 1.5.219.578.218.844.546.281.328.39.844.063.313.063 1.125v1.64q0 1.72.078 2.173.078.453.313.875h-1.282q-.187-.391-.25-.891zm-.094-2.75q-.671.266-2.015.469-.75.11-1.078.25-.313.125-.485.39-.172.266-.172.578 0 .5.375.829.375.328 1.094.328.719 0 1.266-.313.547-.312.812-.86.203-.405.203-1.218v-.453zm6.047 2.547.172 1.078q-.515.11-.922.11-.672 0-1.047-.204-.359-.219-.515-.562-.14-.344-.14-1.453v-4.172H60.8v-.969h.906v-1.797l1.219-.734v2.531h1.234v.969h-1.234v4.234q0 .531.063.688.062.14.203.234.156.094.421.094.22 0 .547-.047zm1.328-7.516v-1.406h1.22v1.406h-1.22zm0 8.61v-7.266h1.22v7.266h-1.22zm7.61 2.78v-3.546q-.281.39-.797.672-.516.266-1.094.266-1.297 0-2.234-1.032-.922-1.047-.922-2.844 0-1.093.375-1.953.375-.875 1.094-1.312.718-.453 1.593-.453 1.344 0 2.11 1.125v-.969h1.11v10.047h-1.235zM69.3 211.08q0 1.407.594 2.11.593.703 1.406.703.797 0 1.36-.672.562-.672.562-2.031 0-1.438-.594-2.172-.594-.734-1.406-.734-.797 0-1.36.687-.562.672-.562 2.11zM42.784 282.691l1.328.344q-.421 1.625-1.515 2.484-1.078.86-2.64.86-1.626 0-2.641-.656-1.016-.672-1.547-1.922-.516-1.25-.516-2.688 0-1.562.594-2.719.594-1.171 1.703-1.765 1.11-.61 2.422-.61 1.515 0 2.531.766 1.031.766 1.438 2.14l-1.313.313q-.344-1.094-1.016-1.594-.656-.5-1.656-.5-1.156 0-1.937.563-.782.547-1.094 1.484-.313.938-.313 1.922 0 1.281.375 2.235.375.953 1.157 1.421.781.47 1.703.47 1.11 0 1.875-.641.781-.641 1.062-1.907zm7.657 1.172 1.28.156q-.312 1.125-1.124 1.75-.813.61-2.078.61-1.594 0-2.532-.985-.921-.984-.921-2.75 0-1.843.937-2.843.953-1.016 2.453-1.016 1.453 0 2.375 1 .922.984.922 2.781v.328h-5.422q.078 1.188.672 1.829.61.64 1.531.64.672 0 1.141-.36.484-.359.766-1.14zm-4.032-1.984h4.047q-.078-.922-.469-1.375-.578-.703-1.515-.703-.86 0-1.438.562-.562.563-.625 1.516zm7.032 4.328V276.19h1.234v10.016h-1.234zm8-2.344 1.28.156q-.312 1.125-1.124 1.75-.813.61-2.078.61-1.594 0-2.532-.985-.921-.984-.921-2.75 0-1.843.937-2.843.953-1.016 2.453-1.016 1.453 0 2.375 1 .922.984.922 2.781v.328h-5.422q.078 1.188.672 1.829.61.64 1.531.64.672 0 1.141-.36.484-.359.766-1.14zm-4.032-1.984h4.047q-.078-.922-.469-1.375-.578-.703-1.515-.703-.86 0-1.438.562-.562.563-.625 1.516zm7.047 4.328v-7.266h1.11v1.11q.421-.782.78-1.016.36-.25.798-.25.625 0 1.265.39l-.422 1.141q-.453-.265-.906-.265-.406 0-.734.25-.313.234-.453.672-.203.656-.203 1.437v3.797h-1.235zm4.969 2.797-.14-1.156q.406.109.703.109.406 0 .656-.14.25-.126.406-.376.11-.187.375-.922.031-.093.11-.296l-2.766-7.282h1.328l1.516 4.203q.296.813.53 1.688.204-.844.5-1.656l1.548-4.235h1.234l-2.766 7.39q-.437 1.188-.687 1.642-.328.609-.75.89-.422.297-1.016.297-.344 0-.781-.156zM79.128 344.512q0-1.78.36-2.859.374-1.094 1.093-1.672.719-.594 1.813-.594.812 0 1.422.329.609.328 1 .937.406.61.625 1.484.218.875.218 2.375 0 1.766-.359 2.844-.36 1.078-1.078 1.672-.719.594-1.828.594-1.438 0-2.266-1.047-1-1.25-1-4.063zm1.266 0q0 2.47.578 3.282.578.812 1.422.812.86 0 1.437-.812.578-.828.578-3.281 0-2.485-.578-3.297-.578-.813-1.453-.813-.844 0-1.344.719-.64.922-.64 3.39zM247.585 349.45h-1.234v-7.844q-.437.422-1.172.86-.719.421-1.281.625v-1.188q1.031-.484 1.797-1.172.781-.687 1.094-1.344h.796v10.063zm3.36-4.938q0-1.78.36-2.859.374-1.094 1.093-1.672.719-.594 1.812-.594.813 0 1.422.329.61.328 1 .937.407.61.625 1.484.219.875.219 2.375 0 1.766-.36 2.844-.359 1.078-1.077 1.672-.72.594-1.829.594-1.437 0-2.265-1.047-1-1.25-1-4.063zm1.265 0q0 2.47.579 3.282.578.812 1.421.812.86 0 1.438-.812.578-.828.578-3.281 0-2.485-.578-3.297-.578-.813-1.453-.813-.844 0-1.344.719-.64.922-.64 3.39zm6.735 0q0-1.78.36-2.859.374-1.094 1.093-1.672.719-.594 1.812-.594.813 0 1.422.329.61.328 1 .937.407.61.625 1.484.219.875.219 2.375 0 1.766-.36 2.844-.359 1.078-1.077 1.672-.72.594-1.829.594-1.437 0-2.265-1.047-1-1.25-1-4.063zm1.265 0q0 2.47.579 3.282.578.812 1.421.812.86 0 1.438-.812.578-.828.578-3.281 0-2.485-.578-3.297-.578-.813-1.453-.813-.844 0-1.344.719-.64.922-.64 3.39zm6.735 0q0-1.78.36-2.859.374-1.094 1.093-1.672.719-.594 1.812-.594.813 0 1.422.329.61.328 1 .937.407.61.625 1.484.219.875.219 2.375 0 1.766-.36 2.844-.359 1.078-1.077 1.672-.72.594-1.829.594-1.437 0-2.265-1.047-1-1.25-1-4.063zm1.265 0q0 2.47.579 3.282.578.812 1.421.812.86 0 1.438-.812.578-.828.578-3.281 0-2.485-.578-3.297-.578-.813-1.453-.813-.844 0-1.344.719-.64.922-.64 3.39zM425.23 348.262v1.188h-6.625q-.015-.438.14-.86.266-.671.813-1.327.563-.657 1.61-1.516 1.64-1.344 2.203-2.125.578-.781.578-1.485 0-.734-.531-1.234-.516-.5-1.344-.5-.89 0-1.438.531-.53.532-.53 1.485l-1.266-.14q.125-1.407.968-2.142.86-.75 2.282-.75 1.453 0 2.28.797.845.797.845 1.985 0 .61-.25 1.187-.235.578-.813 1.219-.562.64-1.89 1.766-1.11.921-1.422 1.265-.313.328-.516.656h4.906zm1.531-3.75q0-1.78.36-2.859.375-1.094 1.094-1.672.718-.594 1.812-.594.813 0 1.422.329.61.328 1 .937.406.61.625 1.484.219.875.219 2.375 0 1.766-.36 2.844-.36 1.078-1.078 1.672-.719.594-1.828.594-1.437 0-2.266-1.047-1-1.25-1-4.063zm1.266 0q0 2.47.578 3.282.578.812 1.422.812.86 0 1.438-.812.578-.828.578-3.281 0-2.485-.578-3.297-.579-.813-1.454-.813-.843 0-1.343.719-.64.922-.64 3.39zm6.734 0q0-1.78.36-2.859.375-1.094 1.094-1.672.718-.594 1.812-.594.813 0 1.422.329.61.328 1 .937.406.61.625 1.484.219.875.219 2.375 0 1.766-.36 2.844-.36 1.078-1.078 1.672-.719.594-1.828.594-1.437 0-2.266-1.047-1-1.25-1-4.063zm1.266 0q0 2.47.578 3.282.578.812 1.422.812.86 0 1.438-.812.578-.828.578-3.281 0-2.485-.578-3.297-.579-.813-1.454-.813-.843 0-1.343.719-.64.922-.64 3.39zm6.734 0q0-1.78.36-2.859.375-1.094 1.094-1.672.718-.594 1.812-.594.813 0 1.422.329.61.328 1 .937.406.61.625 1.484.219.875.219 2.375 0 1.766-.36 2.844-.36 1.078-1.078 1.672-.719.594-1.828.594-1.437 0-2.266-1.047-1-1.25-1-4.063zm1.266 0q0 2.47.578 3.282.578.812 1.422.812.86 0 1.438-.812.578-.828.578-3.281 0-2.485-.578-3.297-.579-.813-1.454-.813-.843 0-1.343.719-.64.922-.64 3.39zM594.594 346.81l1.218-.173q.22 1.047.72 1.516.515.453 1.25.453.874 0 1.468-.594.594-.609.594-1.5 0-.843-.563-1.39-.547-.547-1.39-.547-.36 0-.875.125l.14-1.078q.125.015.188.015.797 0 1.422-.406.625-.406.625-1.265 0-.672-.453-1.11-.454-.453-1.188-.453-.719 0-1.203.453-.469.438-.61 1.344l-1.218-.219q.218-1.234 1.015-1.906.797-.688 1.985-.688.828 0 1.515.36.688.344 1.047.953.375.61.375 1.297 0 .64-.343 1.172-.344.531-1.032.86.89.202 1.375.843.5.64.5 1.625 0 1.312-.968 2.219-.954.906-2.407.906-1.328 0-2.203-.781-.86-.782-.984-2.032zm7.984-2.298q0-1.78.36-2.859.375-1.094 1.093-1.672.719-.594 1.813-.594.812 0 1.422.329.609.328 1 .937.406.61.625 1.484.218.875.218 2.375 0 1.766-.359 2.844-.36 1.078-1.078 1.672-.719.594-1.828.594-1.438 0-2.266-1.047-1-1.25-1-4.063zm1.266 0q0 2.47.578 3.282.578.812 1.422.812.86 0 1.437-.812.578-.828.578-3.281 0-2.485-.578-3.297-.578-.813-1.453-.813-.844 0-1.344.719-.64.922-.64 3.39zm6.734 0q0-1.78.36-2.859.375-1.094 1.093-1.672.719-.594 1.813-.594.812 0 1.422.329.609.328 1 .937.406.61.625 1.484.218.875.218 2.375 0 1.766-.359 2.844-.36 1.078-1.078 1.672-.719.594-1.828.594-1.438 0-2.266-1.047-1-1.25-1-4.063zm1.266 0q0 2.47.578 3.282.578.812 1.422.812.86 0 1.437-.812.578-.828.578-3.281 0-2.485-.578-3.297-.578-.813-1.453-.813-.844 0-1.344.719-.64.922-.64 3.39zm6.734 0q0-1.78.36-2.859.375-1.094 1.093-1.672.719-.594 1.813-.594.812 0 1.422.329.609.328 1 .937.406.61.625 1.484.218.875.218 2.375 0 1.766-.359 2.844-.36 1.078-1.078 1.672-.719.594-1.828.594-1.438 0-2.266-1.047-1-1.25-1-4.063zm1.266 0q0 2.47.578 3.282.578.812 1.422.812.86 0 1.437-.812.578-.828.578-3.281 0-2.485-.578-3.297-.578-.813-1.453-.813-.844 0-1.344.719-.64.922-.64 3.39zM774.348 349.45v-2.406h-4.36v-1.125l4.579-6.485h1v6.485h1.359v1.125h-1.36v2.406h-1.218zm0-3.531v-4.516l-3.14 4.516h3.14zm4.047-1.406q0-1.782.36-2.86.374-1.094 1.093-1.672.719-.594 1.812-.594.813 0 1.422.329.61.328 1 .937.407.61.625 1.484.219.875.219 2.375 0 1.766-.36 2.844-.359 1.078-1.077 1.672-.72.594-1.829.594-1.437 0-2.265-1.047-1-1.25-1-4.063zm1.265 0q0 2.468.579 3.28.578.813 1.421.813.86 0 1.438-.812.578-.828.578-3.281 0-2.485-.578-3.297-.578-.813-1.453-.813-.844 0-1.344.719-.64.922-.64 3.39zm6.735 0q0-1.782.36-2.86.374-1.094 1.093-1.672.719-.594 1.812-.594.813 0 1.422.329.61.328 1 .937.407.61.625 1.484.219.875.219 2.375 0 1.766-.36 2.844-.359 1.078-1.077 1.672-.72.594-1.829.594-1.437 0-2.265-1.047-1-1.25-1-4.063zm1.265 0q0 2.468.579 3.28.578.813 1.421.813.86 0 1.438-.812.578-.828.578-3.281 0-2.485-.578-3.297-.578-.813-1.453-.813-.844 0-1.344.719-.64.922-.64 3.39zm6.735 0q0-1.782.36-2.86.374-1.094 1.093-1.672.719-.594 1.812-.594.813 0 1.422.329.61.328 1 .937.407.61.625 1.484.219.875.219 2.375 0 1.766-.36 2.844-.359 1.078-1.077 1.672-.72.594-1.829.594-1.437 0-2.265-1.047-1-1.25-1-4.063zm1.265 0q0 2.468.579 3.28.578.813 1.421.813.86 0 1.438-.812.578-.828.578-3.281 0-2.485-.578-3.297-.578-.813-1.453-.813-.844 0-1.344.719-.64.922-.64 3.39zM946.212 346.825l1.296-.11q.141.938.657 1.423.53.468 1.265.468.89 0 1.5-.672.625-.672.625-1.765 0-1.063-.593-1.672-.594-.61-1.547-.61-.594 0-1.078.282-.47.265-.75.687l-1.157-.14.969-5.157h4.984v1.188h-4l-.53 2.687q.905-.625 1.89-.625 1.312 0 2.203.907.906.906.906 2.343 0 1.36-.781 2.344-.969 1.219-2.64 1.219-1.36 0-2.235-.766-.86-.765-.985-2.031zm8-2.313q0-1.78.359-2.859.375-1.094 1.094-1.672.718-.594 1.812-.594.813 0 1.422.329.61.328 1 .937.406.61.625 1.484.219.875.219 2.375 0 1.766-.36 2.844-.359 1.078-1.078 1.672-.718.594-1.828.594-1.437 0-2.265-1.047-1-1.25-1-4.063zm1.265 0q0 2.47.578 3.282.578.812 1.422.812.86 0 1.438-.812.578-.828.578-3.281 0-2.485-.578-3.297-.578-.813-1.453-.813-.844 0-1.344.719-.64.922-.64 3.39zm6.735 0q0-1.78.359-2.859.375-1.094 1.094-1.672.718-.594 1.812-.594.813 0 1.422.329.61.328 1 .937.406.61.625 1.484.219.875.219 2.375 0 1.766-.36 2.844-.359 1.078-1.078 1.672-.718.594-1.828.594-1.437 0-2.265-1.047-1-1.25-1-4.063zm1.265 0q0 2.47.578 3.282.578.812 1.422.812.86 0 1.438-.812.578-.828.578-3.281 0-2.485-.578-3.297-.578-.813-1.453-.813-.844 0-1.344.719-.64.922-.64 3.39zm6.735 0q0-1.78.359-2.859.375-1.094 1.094-1.672.718-.594 1.812-.594.813 0 1.422.329.61.328 1 .937.406.61.625 1.484.219.875.219 2.375 0 1.766-.36 2.844-.359 1.078-1.078 1.672-.718.594-1.828.594-1.437 0-2.265-1.047-1-1.25-1-4.063zm1.265 0q0 2.47.578 3.282.578.812 1.422.812.86 0 1.438-.812.578-.828.578-3.281 0-2.485-.578-3.297-.578-.813-1.453-.813-.844 0-1.344.719-.64.922-.64 3.39zM1128.419 341.887l-1.219.094q-.172-.734-.469-1.062-.5-.516-1.234-.516-.594 0-1.031.328-.578.422-.922 1.235-.328.812-.344 2.312.438-.672 1.078-1 .656-.328 1.36-.328 1.234 0 2.093.906.86.906.86 2.344 0 .938-.407 1.75-.406.813-1.125 1.25-.703.422-1.609.422-1.531 0-2.5-1.125-.969-1.14-.969-3.735 0-2.906 1.063-4.234.937-1.14 2.531-1.14 1.188 0 1.938.671.75.657.906 1.828zm-5.032 4.313q0 .64.266 1.219.281.578.766.89.484.297 1.015.297.782 0 1.344-.625.563-.625.563-1.703 0-1.047-.563-1.64-.547-.61-1.39-.61-.829 0-1.422.61-.578.593-.578 1.562zm6.641-1.688q0-1.78.36-2.859.375-1.094 1.093-1.672.719-.594 1.813-.594.812 0 1.422.329.609.328 1 .937.406.61.625 1.484.218.875.218 2.375 0 1.766-.359 2.844-.36 1.078-1.078 1.672-.719.594-1.828.594-1.438 0-2.266-1.047-1-1.25-1-4.063zm1.266 0q0 2.47.578 3.282.578.812 1.422.812.86 0 1.437-.812.578-.828.578-3.281 0-2.485-.578-3.297-.578-.813-1.453-.813-.844 0-1.344.719-.64.922-.64 3.39zm6.734 0q0-1.78.36-2.859.375-1.094 1.093-1.672.719-.594 1.813-.594.812 0 1.422.329.609.328 1 .937.406.61.625 1.484.218.875.218 2.375 0 1.766-.359 2.844-.36 1.078-1.078 1.672-.719.594-1.828.594-1.438 0-2.266-1.047-1-1.25-1-4.063zm1.266 0q0 2.47.578 3.282.578.812 1.422.812.86 0 1.437-.812.578-.828.578-3.281 0-2.485-.578-3.297-.578-.813-1.453-.813-.844 0-1.344.719-.64.922-.64 3.39zm6.734 0q0-1.78.36-2.859.375-1.094 1.093-1.672.719-.594 1.813-.594.812 0 1.422.329.609.328 1 .937.406.61.625 1.484.218.875.218 2.375 0 1.766-.359 2.844-.36 1.078-1.078 1.672-.719.594-1.828.594-1.438 0-2.266-1.047-1-1.25-1-4.063zm1.266 0q0 2.47.578 3.282.578.812 1.422.812.86 0 1.437-.812.578-.828.578-3.281 0-2.485-.578-3.297-.578-.813-1.453-.813-.844 0-1.344.719-.64.922-.64 3.39z" />
</svg>
